<?xml version="1.0" encoding="utf-8"?>
<!-- Generator: Adobe Illustrator 15.0.2, SVG Export Plug-In . SVG Version: 6.00 Build 0)  -->
<!DOCTYPE svg PUBLIC "-//W3C//DTD SVG 1.1//EN" "http://www.w3.org/Graphics/SVG/1.1/DTD/svg11.dtd">
<svg version="1.1" id="Layer_1" xmlns="http://www.w3.org/2000/svg" xmlns:xlink="http://www.w3.org/1999/xlink" x="0px" y="0px"
	 width="522px" height="198px" viewBox="0 0 522 198" enable-background="new 0 0 522 198" xml:space="preserve">
<g>
	<g>
		<path fill="#262324" d="M288.842,136.431c1.795,3.332,0,5.126-3.075,5.126h-9.358c-3.331,0-4.102-1.411-5.895-4.615l-15.38-27.685
			h-14.098v27.174c0,3.204-1.666,5.126-4.872,5.126h-7.433c-3.204,0-4.999-1.922-4.999-5.126V63.246
			c0-3.206,1.924-4.999,5.126-4.999h29.608c20.635,0,31.53,9.868,31.53,25.89c0,11.663-6.665,19.61-17.432,23.072L288.842,136.431z
			 M241.036,96.953h18.2c7.948,0,13.072-4.742,13.072-12.047c0-7.435-5.125-12.305-13.072-12.305h-18.2V96.953z"/>
		<path fill="#262324" d="M331.264,130.278c4.999,0,10.639-1.411,16.278-5.769c2.306-1.793,4.102-2.179,6.15,0l3.079,3.076
			c2.436,2.435,1.409,4.358,0,5.896c-6.537,6.663-17.947,9.74-27.044,9.74c-19.228,0-34.862-13.202-34.862-33.708
			c0-19.354,14.226-33.71,33.578-33.71c9.744,0,17.947,3.461,23.458,8.972c6.022,5.896,9.354,14.357,9.354,23.327
			c0,3.589-1.409,5.255-5.256,5.255h-44.345C312.68,124.254,321.395,130.278,331.264,130.278z M311.782,102.849h32.809
			c-0.64-3.973-2.174-7.305-4.613-9.74c-2.821-3.076-6.923-4.742-11.79-4.742C319.345,88.367,313.062,94.006,311.782,102.849z"/>
		<path fill="#262324" d="M436.872,54.914v81.645c0,3.076-1.795,4.998-4.87,4.998h-5.128c-3.075,0-4.742-1.922-4.742-4.998v-2.692
			c-5.128,5.64-12.433,9.356-21.405,9.356c-18.841,0-32.298-14.867-32.298-33.708c0-18.97,13.457-33.71,32.298-33.71
			c7.306,0,13.842,2.435,19.099,6.281V56.452c0-2.947,1.667-4.23,4.742-4.999l7.177-1.282
			C435.206,49.53,436.872,51.581,436.872,54.914z M420.852,109.515c0-12.176-7.949-18.97-17.687-18.97
			c-10.767,0-17.818,8.46-17.818,18.97s7.051,18.841,17.818,18.841C412.902,128.355,420.852,121.562,420.852,109.515z"/>
		<path fill="#262324" d="M513,54.914v81.645c0,3.076-1.792,4.998-4.871,4.998h-5.125c-3.079,0-4.745-1.922-4.745-4.998v-2.692
			c-5.125,5.64-12.434,9.356-21.402,9.356c-18.841,0-32.301-14.867-32.301-33.708c0-18.97,13.459-33.71,32.301-33.71
			c7.306,0,13.842,2.435,19.096,6.281V56.452c0-2.947,1.667-4.23,4.742-4.999l7.18-1.282C511.337,49.53,513,51.581,513,54.914z
			 M496.98,109.515c0-12.176-7.946-18.97-17.687-18.97c-10.767,0-17.818,8.46-17.818,18.97s7.052,18.841,17.818,18.841
			C489.034,128.355,496.98,121.562,496.98,109.515z"/>
	</g>
	<path fill="#00AEEF" d="M110.643,8.806c-3.54-0.419-7.135-0.659-10.79-0.659c-33.004,0-61.893,17.6-77.806,43.927L51.51,88.36
		l72.812-30.046L110.643,8.806z"/>
	<polygon fill="#E31B23" points="124.321,58.314 51.51,88.36 95.804,142.912 138.939,111.229 	"/>
	<path fill="#008FC5" d="M22.048,52.073C13.769,65.771,9,81.827,9,99c0,2.285,0.113,4.541,0.278,6.784L51.51,88.36L22.048,52.073z"
		/>
	<path fill="#FDBB30" d="M187.614,75.475c-9.466-35.402-39.771-62.265-76.971-66.669l28.296,102.424L187.614,75.475z"/>
	<path fill="#54B948" d="M51.51,88.36L9.278,105.784c2.176,29.421,18.348,54.931,41.897,69.912l44.628-32.784L51.51,88.36z"/>
	<path fill="#8DC63F" d="M51.175,175.696c14.072,8.952,30.765,14.157,48.678,14.157c10.497,0,20.566-1.798,29.943-5.074
		l-33.993-41.867L51.175,175.696z"/>
	<path fill="#F04D3C" d="M138.849,111.295l-43.045,31.617l33.993,41.867c9.295-3.244,17.894-7.954,25.534-13.855L138.849,111.295z"
		/>
	<path fill="#FFD200" d="M138.848,111.287l16.488,59.654c21.54-16.695,35.373-42.696,35.373-71.941
		c0-8.141-1.086-16.022-3.095-23.525L138.848,111.287z"/>
</g>
</svg>
